<svg xmlns="http://www.w3.org/2000/svg" width="214" height="76" viewBox="0 0 214 76">
  <g id="Discover" transform="translate(-1032 -4512)">
    <text id="Discover_our_app" data-name="Discover our app" transform="translate(1034 4512)" fill="#5e6282" font-size="20" font-family="Poppins-Medium, Poppins" font-weight="500"><tspan x="0" y="21">Discover our app</tspan></text>
    <g id="Google_Play" data-name="Google Play">
      <rect id="Rectangle_23" data-name="Rectangle 23" width="107" height="35" rx="17.5" transform="translate(1032 4553)" fill="#080809"/>
      <g id="google-play_1" data-name="google-play 1" transform="translate(1049 4560)">
        <path id="Vector" d="M10.788,9.671.745,19.342A1.709,1.709,0,0,1,0,17.917V1.426A1.709,1.709,0,0,1,.745,0Z" transform="translate(0.719 0.331)" fill="#2196f3"/>
        <path id="Vector-2" data-name="Vector" d="M13.558,6.624,10.044,10,0,.331A1.339,1.339,0,0,1,.118.249,1.718,1.718,0,0,1,1.853.222Z" transform="translate(1.464 0)" fill="#4caf50"/>
        <path id="Vector-3" data-name="Vector" d="M7.773,3.378a1.736,1.736,0,0,1-.908,1.544L3.514,6.756,0,3.378,3.514,0,6.865,1.834A1.736,1.736,0,0,1,7.773,3.378Z" transform="translate(11.507 6.624)" fill="#f0bb1f"/>
        <path id="Vector-4" data-name="Vector" d="M13.558,3.378,1.853,9.78A1.741,1.741,0,0,1,.118,9.753,1.339,1.339,0,0,1,0,9.671L10.044,0Z" transform="translate(1.464 10.002)" fill="#f15a2b"/>
      </g>
      <text id="GET_IT_ON" data-name="GET IT ON" transform="translate(1074 4560)" fill="#fff" font-size="8" font-family="Poppins-Regular, Poppins"><tspan x="0" y="8">GET IT </tspan></text>
      <text id="GOOGLE_PLAY-2" data-name="GOOGLE PLAY" transform="translate(1074 4570)" fill="#fff" font-size="8" font-family="Poppins-Regular, Poppins"><tspan x="0" y="8">GOOGLE PLAY</tspan></text>
    </g>
    <g id="Play_Store" data-name="Play Store">
      <rect id="Rectangle_24" data-name="Rectangle 24" width="100" height="35" rx="17.5" transform="translate(1146 4553)" fill="#080809"/>
      <g id="apple_2_1" data-name="apple (2) 1">
        <g id="Group">
          <path id="Vector-5" data-name="Vector" d="M4.351,12.314C1.97,12.3,0,7.439,0,4.964,0,.92,3.034.034,4.2.034a4.836,4.836,0,0,1,1.586.39,3.545,3.545,0,0,0,.905.26,2.818,2.818,0,0,0,.65-.211A5.206,5.206,0,0,1,9.3,0h0a4.013,4.013,0,0,1,3.358,1.7l.245.368-.352.266a2.966,2.966,0,0,0-1.422,2.446,2.761,2.761,0,0,0,1.54,2.552c.221.133.449.27.449.569,0,.2-1.56,4.393-3.826,4.393a3.077,3.077,0,0,1-1.292-.314,2.62,2.62,0,0,0-1.15-.277,2.958,2.958,0,0,0-.91.246,4.46,4.46,0,0,1-1.579.368Z" transform="translate(1163.438 4564.686)" fill="#fff"/>
          <path id="Vector-6" data-name="Vector" d="M3.006,0A3.152,3.152,0,0,1,.024,3.511,3.39,3.39,0,0,1,3.006,0Z" transform="translate(1169.974 4561)" fill="#fff"/>
        </g>
      </g>
      <text id="Avalible_on_the" data-name="Avalible on the" transform="translate(1182 4560)" fill="#fff" font-size="6" font-family="Poppins-Regular, Poppins"><tspan x="0" y="6">Avalible on </tspan></text>
      <text id="Apple_Store" data-name="Apple Store" transform="translate(1182 4568)" fill="#fff" font-size="10" font-family="Poppins-Regular, Poppins"><tspan x="0" y="11">Apple </tspan></text>
    </g>
  </g>
</svg>
