<svg xmlns="http://www.w3.org/2000/svg" xmlns:xlink="http://www.w3.org/1999/xlink" width="242" height="175" viewBox="0 0 242 175">
  <defs>
    <filter id="Background" x="136" y="2" width="101" height="101" filterUnits="userSpaceOnUse">
      <feOffset dy="2" input="SourceAlpha"/>
      <feGaussianBlur stdDeviation="10" result="blur"/>
      <feFlood flood-opacity="0.102"/>
      <feComposite operator="in" in2="blur"/>
      <feComposite in="SourceGraphic"/>
    </filter>
    <filter id="Background-2" x="0" y="0" width="101" height="101" filterUnits="userSpaceOnUse">
      <feOffset dy="2" input="SourceAlpha"/>
      <feGaussianBlur stdDeviation="10" result="blur-2"/>
      <feFlood flood-opacity="0.102"/>
      <feComposite operator="in" in2="blur-2"/>
      <feComposite in="SourceGraphic"/>
    </filter>
    <filter id="Background-3" x="66" y="0" width="105" height="105" filterUnits="userSpaceOnUse">
      <feOffset dy="2" input="SourceAlpha"/>
      <feGaussianBlur stdDeviation="10" result="blur-3"/>
      <feFlood flood-opacity="0.102"/>
      <feComposite operator="in" in2="blur-3"/>
      <feComposite in="SourceGraphic"/>
    </filter>
  </defs>
  <g id="Outbound" transform="translate(-1004 -4413)">
    <g id="Social">
      <g id="Social-2" data-name="Social">
        <g transform="matrix(1, 0, 0, 1, 1004, 4413)" filter="url(#Background)">
          <path id="Background-4" data-name="Background" d="M20.5,41A20.5,20.5,0,1,0,0,20.5,20.5,20.5,0,0,0,20.5,41Z" transform="translate(166 30)" fill="#fff"/>
        </g>
        <path id="Vector" d="M16,1.539a6.839,6.839,0,0,1-1.89.518A3.262,3.262,0,0,0,15.553.244a6.555,6.555,0,0,1-2.08.794A3.28,3.28,0,0,0,7.8,3.281a3.378,3.378,0,0,0,.076.748A9.284,9.284,0,0,1,1.114.6,3.281,3.281,0,0,0,2.122,4.982a3.239,3.239,0,0,1-1.482-.4v.036A3.3,3.3,0,0,0,3.268,7.837a3.274,3.274,0,0,1-.86.108,2.9,2.9,0,0,1-.621-.056,3.311,3.311,0,0,0,3.065,2.285,6.591,6.591,0,0,1-4.067,1.4A6.144,6.144,0,0,1,0,11.528,9.234,9.234,0,0,0,5.032,13a9.272,9.272,0,0,0,9.336-9.334c0-.145-.005-.285-.012-.424A6.544,6.544,0,0,0,16,1.539Z" transform="translate(1182 4457)" fill="#080809"/>
      </g>
      <g id="Social-3" data-name="Social">
        <g transform="matrix(1, 0, 0, 1, 1004, 4413)" filter="url(#Background-2)">
          <path id="Background-5" data-name="Background" d="M20.5,41A20.5,20.5,0,1,0,0,20.5,20.5,20.5,0,0,0,20.5,41Z" transform="translate(30 28)" fill="#fff"/>
        </g>
        <path id="Facebook_Icon" data-name="Facebook Icon" d="M5.537,2.244a3.523,3.523,0,0,0-1.024-.169c-.416,0-1.312.287-1.312.844V4.253H5.329V6.5H3.2V12.69H1.056V6.5H0V4.253H1.056V3.122C1.056,1.418,1.792,0,3.569,0A8.08,8.08,0,0,1,5.857.253Z" transform="translate(1051.571 4457)" fill="#080809"/>
      </g>
      <g id="Social-4" data-name="Social">
        <g transform="matrix(1, 0, 0, 1, 1004, 4413)" filter="url(#Background-3)">
          <path id="Background-6" data-name="Background" d="M22.5,45A22.5,22.5,0,1,0,0,22.5,22.5,22.5,0,0,0,22.5,45Z" transform="translate(96 28)" fill="#fff"/>
        </g>
        <g id="instagram_1" data-name="instagram 1" transform="translate(1115 4455)">
          <g id="Group">
            <g id="Group-2" data-name="Group">
              <path id="Vector-2" data-name="Vector" d="M13.656,0H2.344A2.347,2.347,0,0,0,0,2.344V13.656A2.346,2.346,0,0,0,2.344,16H13.656A2.346,2.346,0,0,0,16,13.656V2.344A2.346,2.346,0,0,0,13.656,0Zm1.406,13.656a1.408,1.408,0,0,1-1.406,1.406H2.344A1.408,1.408,0,0,1,.938,13.656V2.344A1.408,1.408,0,0,1,2.344.938H13.656a1.408,1.408,0,0,1,1.406,1.406Z"/>
            </g>
            <g id="Group-3" data-name="Group">
              <path id="Vector-3" data-name="Vector" d="M.938,0a.938.938,0,1,0,.938.938A.939.939,0,0,0,.938,0Z" transform="translate(12.219 1.906)"/>
            </g>
            <g id="Group-4" data-name="Group">
              <path id="Vector-4" data-name="Vector" d="M4.219,0A4.219,4.219,0,1,0,8.438,4.219,4.223,4.223,0,0,0,4.219,0Zm0,7.5A3.281,3.281,0,1,1,7.5,4.219,3.285,3.285,0,0,1,4.219,7.5Z" transform="translate(3.781 3.781)"/>
            </g>
          </g>
        </g>
      </g>
    </g>
    <g id="Discover">
      <text id="Discover_our_app" data-name="Discover our app" transform="translate(1034 4512)" fill="#5e6282" font-size="20" font-family="Poppins-Medium, Poppins" font-weight="500"><tspan x="0" y="21">Discover our app</tspan></text>
      <g id="Google_Play" data-name="Google Play">
        <rect id="Rectangle_23" data-name="Rectangle 23" width="107" height="35" rx="17.5" transform="translate(1032 4553)" fill="#080809"/>
        <g id="google-play_1" data-name="google-play 1" transform="translate(1049 4560)">
          <path id="Vector-5" data-name="Vector" d="M10.788,9.671.745,19.342A1.709,1.709,0,0,1,0,17.917V1.426A1.709,1.709,0,0,1,.745,0Z" transform="translate(0.719 0.331)" fill="#2196f3"/>
          <path id="Vector-6" data-name="Vector" d="M13.558,6.624,10.044,10,0,.331A1.339,1.339,0,0,1,.118.249,1.718,1.718,0,0,1,1.853.222Z" transform="translate(1.464 0)" fill="#4caf50"/>
          <path id="Vector-7" data-name="Vector" d="M7.773,3.378a1.736,1.736,0,0,1-.908,1.544L3.514,6.756,0,3.378,3.514,0,6.865,1.834A1.736,1.736,0,0,1,7.773,3.378Z" transform="translate(11.507 6.624)" fill="#f0bb1f"/>
          <path id="Vector-8" data-name="Vector" d="M13.558,3.378,1.853,9.78A1.741,1.741,0,0,1,.118,9.753,1.339,1.339,0,0,1,0,9.671L10.044,0Z" transform="translate(1.464 10.002)" fill="#f15a2b"/>
        </g>
        <text id="GET_IT_ON" data-name="GET IT ON" transform="translate(1074 4560)" fill="#fff" font-size="8" font-family="Poppins-Regular, Poppins"><tspan x="0" y="8">GET IT </tspan></text>
        <text id="GOOGLE_PLAY-2" data-name="GOOGLE PLAY" transform="translate(1074 4570)" fill="#fff" font-size="8" font-family="Poppins-Regular, Poppins"><tspan x="0" y="8">GOOGLE PLAY</tspan></text>
      </g>
      <g id="Play_Store" data-name="Play Store">
        <rect id="Rectangle_24" data-name="Rectangle 24" width="100" height="35" rx="17.5" transform="translate(1146 4553)" fill="#080809"/>
        <g id="apple_2_1" data-name="apple (2) 1">
          <g id="Group-5" data-name="Group">
            <path id="Vector-9" data-name="Vector" d="M4.351,12.314C1.97,12.3,0,7.439,0,4.964,0,.92,3.034.034,4.2.034a4.836,4.836,0,0,1,1.586.39,3.545,3.545,0,0,0,.905.26,2.818,2.818,0,0,0,.65-.211A5.206,5.206,0,0,1,9.3,0h0a4.013,4.013,0,0,1,3.358,1.7l.245.368-.352.266a2.966,2.966,0,0,0-1.422,2.446,2.761,2.761,0,0,0,1.54,2.552c.221.133.449.27.449.569,0,.2-1.56,4.393-3.826,4.393a3.077,3.077,0,0,1-1.292-.314,2.62,2.62,0,0,0-1.15-.277,2.958,2.958,0,0,0-.91.246,4.46,4.46,0,0,1-1.579.368Z" transform="translate(1163.438 4564.686)" fill="#fff"/>
            <path id="Vector-10" data-name="Vector" d="M3.006,0A3.152,3.152,0,0,1,.024,3.511,3.39,3.39,0,0,1,3.006,0Z" transform="translate(1169.974 4561)" fill="#fff"/>
          </g>
        </g>
        <text id="Avalible_on_the" data-name="Avalible on the" transform="translate(1182 4560)" fill="#fff" font-size="6" font-family="Poppins-Regular, Poppins"><tspan x="0" y="6">Avalible on </tspan></text>
        <text id="Apple_Store" data-name="Apple Store" transform="translate(1182 4568)" fill="#fff" font-size="10" font-family="Poppins-Regular, Poppins"><tspan x="0" y="11">Apple </tspan></text>
      </g>
    </g>
  </g>
</svg>
